<svg version="1.1" id="Layer_1" xmlns="http://www.w3.org/2000/svg" xmlns:xlink="http://www.w3.org/1999/xlink" x="0px" y="0px"
	 viewBox="0 0 1014 388.7" style="enable-background:new 0 0 1014 388.7;" xml:space="preserve">
<style type="text/css">
	.st0{fill:#FFFFFF;}
	.st1{fill:#F21030;}
	.st2{fill:#005B3F;}
	.st3{fill:#005B3D;}
</style>
<g>
	<path class="st0" d="M243.5,147.5H1014C1012.6,66.1,945.7,0,864,0H150C67.5,0,0,67.5,0,150l0,0c0,82.5,67.5,150,150,150h714
		c81.3,0,148.1-65.6,150-146.5H243.5V147.5z"/>
	<path class="st1" d="M1014,150c0-0.8,0-1.7,0-2.5H243.5v6H1014C1014,152.3,1014,151.2,1014,150L1014,150z"/>
</g>
<g>
	<path class="st2" d="M288.4,200.2c0.1,2.6,0.4,3.2,1.7,3.7c0.8,0.3,4,0.6,7.6,0.6c13.2,0,14.7-0.4,14.7-3.5c0.1-1.3-0.7-2.5-1.9-3
		c-1.2-0.4-1.2-0.4-7.1-0.4h-10.3c-6.9,0-9.7-0.4-12.1-1.6c-2.7-1.4-3.9-4.4-3.9-9.5c0-6.7,1.9-9.6,7.3-10.9c3-0.8,7.4-1.1,15.6-1.1
		c13.1,0,16.1,0.3,18.8,2.1s3.4,4,3.4,9.6H311c0-3.2-1.1-3.7-8.5-3.7c-3.6,0-8.5,0.1-10.3,0.2c-3,0.2-4,1-4,3.1
		c-0.1,1.5,0.9,2.8,2.4,3c0.7,0.2,0.9,0.2,4.6,0.3h10.6c1,0,6,0.2,8,0.3c7.1,0.3,9.9,3.5,9.9,11c0,6.9-2,9.9-7.5,11.1
		c-2.8,0.6-8.3,1-16.5,1c-12.9,0-15.8-0.3-19.1-2c-2.3-1.1-3.5-4-3.5-8.4c0-0.3,0-1.1,0.1-1.9L288.4,200.2z"/>
	<path class="st2" d="M379.5,174.7v8.5h-30.2v6.4h28.5v7.4h-28.5v6.6h30.6v8.5h-41.8v-37.4H379.5z"/>
	<path class="st2" d="M393.9,174.7h11.4v28.1h25.7v9.2h-37.1V174.7z"/>
	<path class="st2" d="M441.4,174.7h39.6v8.5h-28.3v7.4h26.9v8.5h-26.9v13h-11.3V174.7z"/>
	<path class="st2" d="M526.7,200.2c0.1,2.6,0.4,3.2,1.7,3.7c0.8,0.3,4,0.6,7.6,0.6c13.2,0,14.7-0.4,14.7-3.5c0.1-1.3-0.7-2.5-1.9-3
		c-1.2-0.4-1.2-0.4-7.1-0.4h-10.3c-6.9,0-9.7-0.4-12.2-1.6c-2.7-1.4-3.9-4.4-3.9-9.5c0-6.7,1.9-9.6,7.3-10.9c3-0.8,7.4-1.1,15.6-1.1
		c13.1,0,16.1,0.3,18.8,2.1s3.4,4,3.4,9.6h-11.1c0-3.2-1.1-3.7-8.5-3.7c-3.6,0-8.5,0.1-10.3,0.2c-3,0.2-4,1-4,3.1
		c-0.1,1.5,0.9,2.8,2.4,3c0.7,0.2,0.9,0.2,4.6,0.3h10.6c1,0,6,0.2,8,0.3c7.1,0.3,9.9,3.5,9.9,11c0,6.9-2,9.9-7.5,11.1
		c-2.8,0.6-8.3,1-16.5,1c-12.9,0-15.8-0.3-19.1-2c-2.3-1.1-3.5-4-3.5-8.4c0-0.3,0-1.1,0.1-1.9L526.7,200.2z"/>
	<path class="st2" d="M585.1,184h-16.6v-9.2h44.6v9.2h-16.6v28.1h-11.4V184z"/>
	<path class="st2" d="M660,174.9c5.8,1.1,8.6,4,9.3,10c0.3,3,0.4,6,0.3,9.1c0,9-1,12.7-4.1,15.3c-2.2,1.9-5.4,2.8-10.8,3
		c-2,0.1-7,0.2-10.6,0.2c-8.9,0-13.4-0.2-15.7-0.6c-4.1-0.7-6.5-2.3-8-5s-1.8-5.5-1.8-13.7c0-6.3,0.1-7.8,0.8-10.4
		c1.1-4,3.2-6.1,7.5-7.3c3.1-0.9,6.5-1.1,16.4-1.1C654.1,174.4,657.4,174.5,660,174.9z M632.1,184.8c-1.5,1.2-2,3-2,8.4
		s0.5,7.5,1.8,8.7s3.4,1.5,11.9,1.5c9.8,0,11.8-0.3,13.1-2.1c1.1-1.3,1.3-3.2,1.3-8.2c0-9.4-0.2-9.5-14.2-9.5
		C635.9,183.5,633.6,183.8,632.1,184.8L632.1,184.8z"/>
	<path class="st2" d="M684.3,174.7h32.2c6.6,0,9.5,0.6,11.7,2.4s3.2,4.9,3.2,10c0,6.9-1.7,9.7-6.4,10.8c4.7,0.8,6,2.7,5.9,8.4v5.9
		h-11.6v-4.6c-0.1-4-1.2-4.9-6.3-4.8h-17.4v9.4h-11.3V174.7z M713.3,193.6c5.5,0,6.5-0.7,6.5-4.4c0-2.4-0.2-3.4-1-4.2
		s-1.8-1.1-5.2-1.1h-18.1v9.6L713.3,193.6z"/>
	<path class="st2" d="M755.5,174.7h15.2l20.4,37.4h-12.5l-3.7-6.7h-24.1l-3.6,6.7h-12.8L755.5,174.7z M771.1,197.6l-8.1-14.9
		l-8,14.9H771.1z"/>
	<path class="st2" d="M832,187.4c0-2.9-1.3-4-4.7-4.1h-2.9l-4-0.1l-4.1,0.1c-5.4,0-5.4,0-6.8,0.3c-2.1,0.5-3,1.6-3.2,3.9
		c-0.2,2.3-0.3,4.6-0.3,6.8c0,5,0.5,7.1,2.1,8.1c1.3,0.8,2.9,1.2,5.8,1.2c1.2,0.1,1.2,0.1,8.2,0.1c7.5,0.1,8.8-0.3,9.8-2.8
		c0.1-0.7,0.2-1.4,0.2-2.1V198h-14.4v-6.9h25.5v5.1c0,6.2-0.2,8.3-1,10.4c-1.3,3.5-3.9,5.1-8.6,5.7c-1.2,0.1-4.6,0.2-15.6,0.2
		c-8.6,0-11.9-0.2-14.2-0.7c-4.1-0.9-6.5-2.6-7.8-5.7c-1.1-2.5-1.4-5.1-1.4-12.1c0-8,0.5-11.2,1.9-13.8c1.7-2.9,4.3-4.4,9.1-5.1
		c4.7-0.4,9.5-0.6,14.2-0.5c10.2,0,13.4,0.2,15.8,0.7c5.8,1.5,7.6,4.4,7.6,12.2L832,187.4z"/>
	<path class="st2" d="M896.9,174.7v8.5h-30.2v6.4h28.5v7.4h-28.5v6.6h30.6v8.5h-41.8v-37.4H896.9z"/>
</g>
<g>
	<path class="st2" d="M285.9,74.9h38.4v16.4h-17.4v5.9h15.4v15.1h-15.4v20.2h-21L285.9,74.9z"/>
	<path class="st2" d="M400.8,103.7c0,17.2-13.5,29.6-31.9,29.6s-31.7-12.2-31.7-29.4c0-17.5,13.2-29.9,32.1-29.9
		C387.8,74,400.8,86.2,400.8,103.7z M358.3,103.7c0,6.5,4.5,11,10.8,11s10.5-4.5,10.5-10.9c0-6.7-4.4-11.3-10.9-11.3
		C362.8,92.6,358.3,97.3,358.3,103.7z"/>
	<path class="st2" d="M420,74.9h26c6.2,0,10,0.9,13.8,3.3c6.2,3.8,9.2,9.3,9.2,16.6c0,4.5-1.3,8.6-3.6,11.1c-1.5,1.7-3.5,2.8-7.5,4
		v0.5c1.2,0.6,2.2,1.6,3,2.7l13,19.4h-24.1l-8.3-16.9c-0.3-0.6-0.6-1.2-0.8-1.8l-0.3,0.2v18.5H420V74.9z M443.2,100.5
		c3.4,0,5.5-1.9,5.5-4.8c0.2-2.6-1.8-4.8-4.4-5c-0.1,0-0.2,0-0.4,0h-3.6v9.8H443.2z"/>
	<path class="st2" d="M503.1,93l-11.8,0.6V74.9h43.9v18.7L523.7,93v39.4h-20.5V93z"/>
	<path class="st2" d="M594.2,74.9h20.1v15.8c0.1,3.1,0,6.1-0.4,9.2h0.4c0.5-2,1.3-3.9,2.4-5.6c1.5-2.5,2.6-4.3,2.8-4.9l7.8-14.4
		h22.8l-18,28.1l19.9,29.5h-24.3l-9.5-16.5c-1.5-2.9-0.7-1.4-2.8-5c-0.5-0.8-0.9-1.7-1.2-2.6h-0.4c0.4,2.7,0.5,5.5,0.4,8.2v15.9
		h-20.1V74.9z"/>
	<path class="st2" d="M672.2,74.9h20l13.3,21.6c2.1,3.3,3.9,6.7,5.4,10.3h0.6c-1.1-4.5-1.6-9.1-1.5-13.7l-0.3-18.2h20v57.6h-20
		l-14.3-22.7c-1.5-2.4-2.9-4.9-4-7.5h-0.6c0.7,3.5,1.1,7.1,1.1,10.6l0.3,19.6h-20L672.2,74.9z"/>
	<path class="st2" d="M813.5,103.7c0,17.2-13.5,29.6-31.9,29.6s-31.7-12.2-31.7-29.4c0-17.5,13.2-29.9,32.1-29.9
		C800.6,74,813.5,86.2,813.5,103.7z M771,103.7c0,6.5,4.5,11,10.8,11s10.5-4.5,10.5-10.9c0-6.7-4.4-11.3-10.9-11.3
		C775.5,92.6,771.1,97.3,771,103.7L771,103.7z"/>
	<path class="st2" d="M850.4,74.9l4.8,9c0.6,1.3,1,2.6,1.3,4h0.4c0.3-1.4,0.8-2.7,1.4-4l4.4-9h23.7l-18,26.9l20.5,30.6H865l-7-13
		c-0.4-0.9-0.6-1.8-0.8-2.8h-0.6c-0.3,1.1-0.7,2.2-1.2,3.2l-6.8,12.6h-23.8l20.1-30.6l-18.1-27H850.4z"/>
</g>
<g>
	<path class="st2" d="M911.8,126.9v-15.4h5.6c0.9-0.1,1.8,0.1,2.6,0.4c0.6,0.3,1.1,0.8,1.4,1.4c0.4,0.7,0.6,1.5,0.5,2.3
		c0.2,2.1-1.4,4-3.6,4.2c0.4,0.2,0.8,0.5,1.1,0.9c0.5,0.6,1,1.3,1.3,2l2.2,4.2h-2.1l-1.7-3.2c-0.4-0.9-0.9-1.7-1.5-2.5
		c-0.3-0.4-0.6-0.7-1-0.9c-0.4-0.2-0.9-0.2-1.3-0.2h-1.9v6.8L911.8,126.9z M913.5,118.3h3.6c0.6,0,1.2-0.1,1.8-0.3
		c0.4-0.2,0.8-0.5,1-0.9c0.2-0.4,0.4-0.9,0.4-1.4c0-0.7-0.2-1.3-0.7-1.8c-0.6-0.5-1.3-0.7-2-0.7h-4L913.5,118.3z"/>
	<path class="st2" d="M916.5,132.5c-7.2,0-13-5.8-13-13s5.8-13,13-13s13,5.8,13,13S923.7,132.5,916.5,132.5z M916.5,108.5
		c-6.1,0-11,4.9-11,11s4.9,11,11,11s11-4.9,11-11S922.6,108.5,916.5,108.5z"/>
</g>
<g>
	<circle class="st3" cx="149" cy="149" r="99.5"/>
	<path class="st0" d="M189.6,108c0-21.8-17.7-39.5-39.5-39.5s-39.5,17.7-39.5,39.5c0,14.6,8.1,28,21,34.9l-14.1,87.6h65.2
		l-14.2-87.6C181.5,136.1,189.6,122.6,189.6,108z"/>
</g>
<g>
	<path class="st0" d="M146,386.9V341h37.6v14.6h-20v5.3h20v12.9h-20v13.2H146z"/>
	<path class="st0" d="M190.5,386.9V341h30.6c5.3,0,9.1,1,11.6,3.1c2.4,2.1,3.7,5.3,3.7,9.8c0,4.3-1,7.7-3.1,10
		c-2.1,2.3-5.2,3.6-9.3,3.8l14.5,19.3h-20.3l-6.8-10.6c-0.7-1.1-1.3-2.2-1.8-3.3c-0.6-1.1-1.1-2.3-1.5-3.5h-0.4
		c0.1,1.1,0.2,2.2,0.3,3.4c0.1,1.2,0.1,2.9,0.1,5.2v8.7H190.5z M207.8,362.5h3.6c2.7,0,4.7-0.4,5.8-1.2c1.1-0.8,1.7-2.1,1.7-3.9
		c0-1.6-0.5-2.7-1.4-3.3c-1-0.6-2.8-1-5.5-1h-4.1V362.5z"/>
	<path class="st0" d="M242.8,386.9V341h37.6v13.4h-20.6v5.3h20.6v10h-20.6v5.6h20.6v11.6H242.8z"/>
	<path class="st0" d="M288.1,386.9V341h37.6v13.4h-20.6v5.3h20.6v10h-20.6v5.6h20.6v11.6H288.1z"/>
	<path class="st0" d="M333.5,386.9V341h26.8c6.6,0,11.5,1.7,14.7,5c3.3,3.4,4.9,8.4,4.9,15.2c0,8.9-1.8,15.5-5.4,19.6
		c-3.6,4.1-9.3,6.2-17.1,6.2H333.5z M350.7,373.7h2.8c3.4,0,5.8-0.8,7.3-2.4c1.5-1.6,2.2-4.2,2.2-7.8c0-2.8-0.7-4.8-2.1-6
		c-1.4-1.2-3.6-1.9-6.7-1.9h-3.6V373.7z"/>
	<path class="st0" d="M407.7,388.4c-8.2,0-14.2-2.1-17.9-6.2c-3.7-4.1-5.6-10.8-5.6-19.9c0-7.8,1.9-13.6,5.6-17.2
		c3.8-3.6,9.7-5.4,17.8-5.4c8.2,0,14.1,1.8,17.9,5.4c3.8,3.6,5.6,9.4,5.6,17.2c0,9.1-1.9,15.8-5.6,19.9
		C421.9,386.3,416,388.4,407.7,388.4z M407.7,374.2c2.3,0,4-0.8,5.2-2.5c1.2-1.7,1.8-4.1,1.8-7.4c0-2.9-0.6-5.1-1.7-6.6
		c-1.2-1.5-2.9-2.2-5.2-2.2c-2.3,0-4,0.7-5.1,2.2c-1.1,1.4-1.7,3.6-1.7,6.5c0,3.4,0.6,5.9,1.7,7.6
		C403.8,373.4,405.5,374.2,407.7,374.2z"/>
	<path class="st0" d="M452.2,357.9c0.3,2.4,0.6,5,0.8,7.9c0.2,2.8,0.2,6,0.2,9.6v11.6h-15.5V341h21.6l4.5,12.6
		c0.6,1.7,1.1,3.5,1.5,5.3c0.4,1.8,0.7,3.7,0.9,5.7l0.4,0c0.1-1.6,0.4-3.3,0.9-5.1c0.4-1.8,1.1-3.8,1.9-6l4.4-12.4H495v45.9h-15.5
		v-11.6c0-3.4,0.1-6.5,0.3-9.4c0.2-2.9,0.4-5.6,0.8-8.1h-0.8c-0.5,2.1-1,4.2-1.5,6.3c-0.6,2.1-1.2,4.1-1.9,6.2l-5.7,16.6h-8.7
		l-5.6-16.6c-0.9-2.7-1.7-5.1-2.2-7c-0.5-1.9-1-3.7-1.3-5.4H452.2z"/>
	<path class="st0" d="M535.2,386.9v-30.6h-11.8V341h41.2v15.3h-11.8v30.6H535.2z"/>
	<path class="st0" d="M591.9,388.4c-8.2,0-14.2-2.1-17.9-6.2c-3.7-4.1-5.6-10.8-5.6-19.9c0-7.8,1.9-13.6,5.6-17.2s9.7-5.4,17.8-5.4
		c8.2,0,14.1,1.8,17.9,5.4c3.8,3.6,5.6,9.4,5.6,17.2c0,9.1-1.9,15.8-5.6,19.9C606.1,386.3,600.2,388.4,591.9,388.4z M591.9,374.2
		c2.3,0,4-0.8,5.2-2.5c1.2-1.7,1.8-4.1,1.8-7.4c0-2.9-0.6-5.1-1.7-6.6c-1.2-1.5-2.9-2.2-5.2-2.2c-2.3,0-4,0.7-5.1,2.2
		s-1.7,3.6-1.7,6.5c0,3.4,0.6,5.9,1.7,7.6C587.9,373.4,589.7,374.2,591.9,374.2z"/>
	<path class="st0" d="M659,357.9c0.3,2.4,0.6,5,0.8,7.9c0.2,2.8,0.2,6,0.2,9.6v11.6h-15.5V341h21.6l4.5,12.6
		c0.6,1.7,1.1,3.5,1.5,5.3c0.4,1.8,0.7,3.7,0.9,5.7l0.4,0c0.1-1.6,0.4-3.3,0.9-5.1c0.4-1.8,1.1-3.8,1.9-6l4.4-12.4h21.2v45.9h-15.5
		v-11.6c0-3.4,0.1-6.5,0.3-9.4c0.2-2.9,0.4-5.6,0.8-8.1h-0.8c-0.5,2.1-1,4.2-1.5,6.3c-0.6,2.1-1.2,4.1-1.9,6.2l-5.7,16.6h-8.7
		l-5.6-16.6c-0.9-2.7-1.7-5.1-2.2-7c-0.5-1.9-1-3.7-1.3-5.4H659z"/>
	<path class="st0" d="M731.8,388.4c-8.2,0-14.2-2.1-17.9-6.2c-3.7-4.1-5.6-10.8-5.6-19.9c0-7.8,1.9-13.6,5.6-17.2
		c3.8-3.6,9.7-5.4,17.8-5.4c8.2,0,14.1,1.8,17.9,5.4c3.8,3.6,5.6,9.4,5.6,17.2c0,9.1-1.9,15.8-5.6,19.9
		C746,386.3,740,388.4,731.8,388.4z M731.8,374.2c2.3,0,4-0.8,5.2-2.5c1.2-1.7,1.8-4.1,1.8-7.4c0-2.9-0.6-5.1-1.7-6.6
		c-1.2-1.5-2.9-2.2-5.2-2.2c-2.3,0-4,0.7-5.1,2.2c-1.1,1.4-1.7,3.6-1.7,6.5c0,3.4,0.6,5.9,1.7,7.6
		C727.8,373.4,729.5,374.2,731.8,374.2z"/>
	<path class="st0" d="M768.3,386.9L756.9,341h18l4.2,21.3c0.2,1.1,0.4,2.6,0.7,4.4c0.2,1.8,0.5,3.9,0.7,6.5h0.4
		c0.2-2.5,0.4-4.7,0.7-6.4c0.2-1.8,0.5-3.3,0.7-4.5l4.1-21.2H804l-11.4,45.9H768.3z"/>
	<path class="st0" d="M808.7,386.9V341h37.6v13.4h-20.6v5.3h20.6v10h-20.6v5.6h20.6v11.6H808.7z"/>
	<path class="st0" d="M859.4,386.9c-2.3,0-3.9-0.4-4.8-1.1c-0.8-0.7-1.3-2.2-1.3-4.5v-0.9c0-2.2,0.4-3.7,1.3-4.5
		c0.9-0.8,2.5-1.1,4.8-1.1h3.7c2.4,0,4,0.4,4.8,1.1c0.9,0.8,1.3,2.2,1.3,4.5v0.9c0,2.2-0.4,3.7-1.3,4.5c-0.9,0.8-2.5,1.1-4.8,1.1
		H859.4z"/>
</g>
</svg>
