<svg id="pp" xmlns="http://www.w3.org/2000/svg" xmlns:xlink="http://www.w3.org/1999/xlink" viewBox="0 0 24 24"><defs><clipPath id="clip-path"><path d="M166.35,619.57a1.89,1.89,0,0,1,.27-1,2,2,0,0,1,.73-.73,1.92,1.92,0,0,1,1-.27,1.89,1.89,0,0,1,1,.27,2,2,0,0,1,.73.73,2,2,0,0,1,0,2,2,2,0,0,1-.73.73,1.89,1.89,0,0,1-1,.27,1.92,1.92,0,0,1-1-.27,2,2,0,0,1-.73-.73A1.9,1.9,0,0,1,166.35,619.57Zm.12-6.23h3.75l1.14,1.22h2a1.17,1.17,0,0,1,.87.38,1.22,1.22,0,0,1,.36.88v7.5a1.23,1.23,0,0,1-.36.89,1.16,1.16,0,0,1-.87.37h-10a1.16,1.16,0,0,1-.87-.37,1.23,1.23,0,0,1-.36-.89v-7.5a1.22,1.22,0,0,1,.36-.88,1.17,1.17,0,0,1,.87-.38h2Zm1.88,9.37a3.05,3.05,0,0,0,1.57-.42,3.12,3.12,0,0,0,1.14-1.14,3.16,3.16,0,0,0,0-3.15,3.12,3.12,0,0,0-1.14-1.14,3.05,3.05,0,0,0-1.57-.42,3.12,3.12,0,0,0-2.72,1.56,3.16,3.16,0,0,0,0,3.15,3.12,3.12,0,0,0,2.72,1.56Z" fill="none" clip-rule="evenodd"/></clipPath></defs><title>icons-vscape</title><path fill="#ffffff" d="M9.11,14,5,10.18,2.58,12.77l6.64,6.07L20.58,7.47,18.11,5Z"/></svg>