<svg id="Solid" xmlns="http://www.w3.org/2000/svg" width="216" height="216" viewBox="0 0 216 216">
  <title>x</title>
  <g>
    <path d="M94.79,173a17.16,17.16,0,1,0,17.16,17.16A17.18,17.18,0,0,0,94.79,173Zm0,24.33a7.16,7.16,0,1,1,7.16-7.16A7.17,7.17,0,0,1,94.79,197.36Z" fill="#00593d"/>
    <path d="M155.5,173a17.16,17.16,0,1,0,17.16,17.16A17.18,17.18,0,0,0,155.5,173Zm0,24.33a7.16,7.16,0,1,1,7.16-7.16A7.17,7.17,0,0,1,155.5,197.36Z" fill="#00593d"/>
    <path d="M202.34,56.15H56.44L48.66,22.64h-43v10H40.72l31.11,134H177.56v-10H79.77l-4.35-18.72H182.91Zm-46.5,10h33.84l-6,25.41H155.84Zm-53.44,0h43.44V91.56H102.4Zm43.44,35.41v26.38H102.4V101.56ZM58.76,66.15H92.4V91.56H64.66Zm14.35,61.8L67,101.56H92.4v26.38Zm101.9,0H155.84V101.56h25.43Z" fill="#00593d"/>
  </g>
</svg>
